<svg width="512" height="512" viewBox="0 0 512 512" fill="none" xmlns="http://www.w3.org/2000/svg">
  <rect width="512" height="512" rx="128" fill="#059669"/>

  <g transform="rotate(-6 256 256)">
    
    <path d="M160 152 C160 140.954 168.954 132 180 132 H332 C343.046 132 352 140.954 352 152 V392 L328 377 L304 392 L280 377 L256 392 L232 377 L208 392 L184 377 L160 392 V152Z" fill="#047857"/>

    <path d="M160 140 C160 128.954 168.954 120 180 120 H332 C343.046 120 352 128.954 352 140 V380 L328 365 L304 380 L280 365 L256 380 L232 365 L208 380 L184 365 L160 380 V140Z" fill="#FFFFFF"/>

    <circle cx="212" cy="180" r="20" fill="#FBBF24"/>
    <rect x="248" y="168" width="72" height="24" rx="12" fill="#E5E7EB"/>

    <circle cx="212" cy="240" r="20" fill="#34D399"/>
    <rect x="248" y="228" width="48" height="24" rx="12" fill="#E5E7EB"/>

    <rect x="192" y="290" width="128" height="4" rx="2" fill="#F3F4F6"/>

    <rect x="192" y="316" width="56" height="24" rx="12" fill="#E5E7EB"/>
    <rect x="260" y="312" width="60" height="32" rx="16" fill="#10B981"/>
  </g>
</svg>
